<mxfile host="app.diagrams.net" modified="2023-03-24T15:37:53.682Z" agent="Mozilla/5.0 (Windows NT 10.0; Win64; x64) AppleWebKit/537.36 (KHTML, like Gecko) Chrome/111.0.0.0 Safari/537.36" version="21.1.0" etag="X_iBGyb3_GWap8JZAsFS" type="github">
  <diagram name="Page-1" id="DUJIO8SUm9X-BvUY9iKR">
    <mxGraphModel>
      <root>
        <mxCell id="0" />
        <mxCell id="1" parent="0" />
      </root>
    </mxGraphModel>
  </diagram>
</mxfile>
